<svg width="22" height="24" viewBox="0 0 22 24" fill="none" xmlns="http://www.w3.org/2000/svg">
<g clip-path="url(#clip0_14_372)">
<path d="M16.2788 13.7907C16.236 13.7683 14.6321 12.9067 14.3471 12.7948C14.2308 12.7492 14.1061 12.7047 13.9735 12.7047C13.757 12.7047 13.575 12.8225 13.4333 13.0537C13.2731 13.3135 12.7881 13.932 12.6383 14.1167C12.6187 14.1411 12.592 14.1703 12.576 14.1703C12.5616 14.1703 12.3134 14.0588 12.2383 14.0232C10.5178 13.2079 9.21183 11.2473 9.03276 10.9166C9.00719 10.8691 9.00612 10.8475 9.0059 10.8475C9.01219 10.8224 9.07005 10.7591 9.0999 10.7264C9.18726 10.6321 9.2819 10.5079 9.37348 10.3876C9.41683 10.3307 9.46026 10.2736 9.5029 10.2199C9.63576 10.0512 9.6949 9.92033 9.76347 9.76869L9.7994 9.68991C9.96683 9.32703 9.82383 9.0208 9.77762 8.92191C9.73969 8.83916 9.06247 7.05615 8.99047 6.86882C8.81733 6.4168 8.58855 6.20633 8.27062 6.20633C8.24112 6.20633 8.27062 6.20633 8.1469 6.21202C7.99626 6.21895 7.1759 6.33677 6.81319 6.5862C6.42855 6.85074 5.77783 7.69402 5.77783 9.17703C5.77783 10.5118 6.55426 11.772 6.88762 12.2513C6.8959 12.2634 6.91112 12.2879 6.93319 12.3231C8.20983 14.3571 9.80133 15.8644 11.4147 16.5675C12.9679 17.2443 13.7034 17.3225 14.1215 17.3225H14.1216C14.2973 17.3225 14.438 17.3075 14.562 17.2942L14.6408 17.286C15.1773 17.2341 16.3565 16.5676 16.6247 15.7544C16.836 15.114 16.8917 14.4143 16.7511 14.1603C16.6548 13.9876 16.4889 13.9007 16.2788 13.7907Z" fill="green"/>
<path d="M11.1953 0C5.23698 0 0.389555 5.24836 0.389555 11.6995C0.389555 13.786 0.901412 15.8284 1.87105 17.6159L0.0151263 23.5883C-0.0194452 23.6996 0.00626912 23.8227 0.0817691 23.9066C0.136269 23.9673 0.210198 24 0.285698 24C0.314626 24 0.343769 23.9952 0.372198 23.9854L6.08077 22.0064C7.64291 22.917 9.40848 23.3976 11.1953 23.3976C17.1531 23.3977 22 18.1498 22 11.6995C22 5.24836 17.1531 0 11.1953 0ZM11.1953 20.9606C9.51391 20.9606 7.88541 20.4309 6.48556 19.4289C6.43848 19.3951 6.38384 19.3778 6.32884 19.3778C6.29977 19.3778 6.27063 19.3826 6.24227 19.3925L3.38263 20.3841L4.30577 17.413C4.33563 17.3169 4.3207 17.2108 4.2657 17.1288C3.1997 15.5398 2.6362 13.6625 2.6362 11.6995C2.6362 6.59221 6.47577 2.43709 11.1952 2.43709C15.9141 2.43709 19.7532 6.59221 19.7532 11.6995C19.7533 16.8061 15.9142 20.9606 11.1953 20.9606Z" fill="green"/>
</g>
<defs>
<clipPath id="clip0_14_372">
<rect width="22" height="24" fill="white"/>
</clipPath>
</defs>
</svg>
